<?xml version="1.0" encoding="UTF-8" standalone="no"?>
<!-- Created with Inkscape (http://www.inkscape.org/) -->

<svg
   width="10mm"
   height="10mm"
   viewBox="0 0 9.9999997 10"
   version="1.1"
   id="svg1"
   sodipodi:docname="aplus.svg"
   inkscape:export-filename="aplus.png"
   inkscape:export-xdpi="1300.48"
   inkscape:export-ydpi="1300.48"
   inkscape:version="1.4.2 (ebf0e940d0, 2025-05-08)"
   xmlns:inkscape="http://www.inkscape.org/namespaces/inkscape"
   xmlns:sodipodi="http://sodipodi.sourceforge.net/DTD/sodipodi-0.dtd"
   xmlns:xlink="http://www.w3.org/1999/xlink"
   xmlns="http://www.w3.org/2000/svg"
   xmlns:svg="http://www.w3.org/2000/svg">
  <sodipodi:namedview
     id="namedview1"
     pagecolor="#505050"
     bordercolor="#eeeeee"
     borderopacity="1"
     inkscape:showpageshadow="0"
     inkscape:pageopacity="0"
     inkscape:pagecheckerboard="0"
     inkscape:deskcolor="#505050"
     inkscape:document-units="mm"
     inkscape:zoom="4.5706771"
     inkscape:cx="11.923835"
     inkscape:cy="11.486263"
     inkscape:window-width="1366"
     inkscape:window-height="768"
     inkscape:window-x="0"
     inkscape:window-y="0"
     inkscape:window-maximized="0"
     inkscape:current-layer="layer2" />
  <defs
     id="defs1">
    <linearGradient
       id="linearGradient54"
       inkscape:collect="always">
      <stop
         style="stop-color:#7cc2ff;stop-opacity:1;"
         offset="0"
         id="stop56" />
      <stop
         style="stop-color:#e1006a;stop-opacity:1;"
         offset="1"
         id="stop55" />
    </linearGradient>
    <linearGradient
       id="swatch24"
       inkscape:swatch="solid">
      <stop
         style="stop-color:#ffffff;stop-opacity:1;"
         offset="0"
         id="stop24" />
    </linearGradient>
    <clipPath
       clipPathUnits="userSpaceOnUse"
       id="clipPath12">
      <rect
         style="fill:none;stroke:#000000;stroke-linecap:butt;stroke-linejoin:bevel;paint-order:stroke markers fill;stop-color:#000000"
         id="rect12"
         width="45.034248"
         height="38.955639"
         x="262.48285"
         y="121.00073" />
    </clipPath>
    <clipPath
       clipPathUnits="userSpaceOnUse"
       id="clipPath15">
      <rect
         style="fill:none;stroke:#000000;stroke-linecap:butt;stroke-linejoin:bevel;paint-order:stroke markers fill;stop-color:#000000"
         id="rect15-7"
         width="45.034248"
         height="38.955639"
         x="262.48285"
         y="121.00073" />
    </clipPath>
    <linearGradient
       id="swatch7"
       inkscape:swatch="solid">
      <stop
         style="stop-color:#ffffff;stop-opacity:1;"
         offset="0"
         id="stop7" />
    </linearGradient>
    <radialGradient
       inkscape:collect="always"
       xlink:href="#linearGradient54"
       id="radialGradient56"
       cx="10.638068"
       cy="15.157837"
       fx="10.638068"
       fy="15.157837"
       r="5"
       gradientUnits="userSpaceOnUse"
       gradientTransform="matrix(-1.5300192,-1.9475751,1.497165,-1.1761717,1.6002416,41.75457)" />
  </defs>
  <g
     inkscape:groupmode="layer"
     id="layer2"
     inkscape:label="Layer 2"
     transform="translate(0.39776512,-1.1601527)">
    <rect
       style="opacity:1;mix-blend-mode:normal;stroke-width:0.264583;fill-opacity:1;fill:url(#radialGradient56)"
       id="rect10"
       width="10"
       height="10"
       x="-0.39776492"
       y="1.1601527"
       ry="5" />
  </g>
  <g
     inkscape:label="Layer 1"
     inkscape:groupmode="layer"
     id="layer1"
     transform="translate(-74.357624,-72.773307)">
    <g
       id="g10"
       transform="translate(-11.667853,-0.01286033)">
      <g
         fill="#000000"
         fill-opacity="1"
         id="g4"
         transform="matrix(0.33011204,0,0,0.33011204,-8.3668016,27.105159)">
        <g
           id="use3"
           transform="translate(285.862,164.653)">
          <path
             d="M 3.25,-0.25 C 4.09375,-2.40625 5.125,-5.0625 5.96875,-6.640625 H 12.1875 L 13.453125,-2.125 c 0.328125,1.140625 0.921875,2.46875 2.40625,2.46875 1.4375,0 3.046875,-0.734375 4.484375,-1.390625 l -0.171875,-0.6875 c -0.46875,0.09375 -1.015625,0.203125 -1.4375,0.203125 -1.6875,0 -2.875,-3.921875 -3.5625,-6.25 l -2.75,-9.25 h -5.5625 v 0.953125 L 9.1875,-15.78125 c 0.0625,0 0.078125,0.0625 0.078125,0.09375 0,0.04687 0,0.09375 -0.015625,0.125 -2.75,5.28125 -5.828125,10.359375 -9.171875,15.34375 l 0.046875,0.25 z m 8.171875,-7.6875 H 7.1875 c -0.09375,0 -0.28125,-0.0625 -0.28125,-0.140625 0,-0.09375 0,-0.15625 0.0625,-0.21875 l 2.59375,-5.15625 c 0.078125,-0.125 0.171875,-0.203125 0.21875,-0.203125 0.0625,0 0.1875,0.04687 0.234375,0.203125 L 11.625,-8.375 c 0.01563,0.046875 0.01563,0.25 0.01563,0.328125 0,0.0625 -0.140625,0.109375 -0.21875,0.109375 z m 0,0"
             id="path9" />
        </g>
      </g>
      <g
         fill="#000000"
         fill-opacity="1"
         id="g5"
         transform="matrix(0.33011204,0,0,0.33011204,-10.842643,27.105159)">
        <g
           id="use4"
           transform="translate(306.436,154.416)">
          <path
             d="m 9.75,-5.953125 v -6.40625 L 8.71875,-12.0625 v 6.109375 H 1.515625 l -0.359375,1.03125 h 7.5625 V 1.71875 L 9.75,1.328125 v -6.25 h 7.203125 l 0.34375,-1.03125 z m 0,0"
             id="path10" />
        </g>
      </g>
    </g>
  </g>
</svg>
